<svg width="16" height="16" viewBox="0 0 16 16" fill="none" xmlns="http://www.w3.org/2000/svg">
<g clip-path="url(#clip0_125_559)">
<path d="M13.5001 5.00088C14.8255 5.00088 15.91 6.03236 15.9947 7.33639L16 7.50075V13.5001C16 14.8255 14.9685 15.91 13.6645 15.9947L13.5001 16H7.50075C6.17534 16 5.09084 14.9685 5.0062 13.6645L5.00088 13.5001V7.50075C5.00088 6.17534 6.03236 5.09084 7.33639 5.0062L7.50075 5.00088H13.5001ZM13.5001 6.00083H7.50075C6.7211 6.00083 6.08038 6.59569 6.00769 7.3563L6.00083 7.50075V13.5001C6.00083 14.2798 6.59569 14.9205 7.3563 14.9932L7.50075 15.0001H13.5001C14.2798 15.0001 14.9205 14.4052 14.9932 13.6446L15.0001 13.5001V7.50075C15.0001 6.7211 14.4052 6.08038 13.6446 6.00769L13.5001 6.00083ZM10.5004 7.00078C10.7459 7.00078 10.95 7.17764 10.9924 7.41088L11.0004 7.50075L10.9994 10.0005L13.5005 10.0006C13.7766 10.0006 14.0004 10.2245 14.0004 10.5006C14.0004 10.746 13.8236 10.9502 13.5903 10.9925L13.5005 11.0006L10.9994 11.0004L11.0004 13.5005C11.0004 13.7766 10.7766 14.0004 10.5004 14.0004C10.255 14.0004 10.0509 13.8236 10.0085 13.5903L10.0005 13.5005L9.9995 11.0004L7.50075 11.0006C7.22462 11.0006 7.00078 10.7767 7.00078 10.5006C7.00078 10.2552 7.17764 10.051 7.41088 10.0087L7.50075 10.0006L9.9995 10.0005L10.0005 7.50075C10.0005 7.22462 10.2243 7.00078 10.5004 7.00078ZM10.6625 1.69609L10.7101 1.85348L11.2854 4.0008H10.2495L9.74426 2.11229C9.54247 1.35919 8.80205 0.894267 8.04854 1.02092L7.90723 1.05168L2.11229 2.60443C1.35919 2.80622 0.894267 3.54664 1.02092 4.30015L1.05168 4.44146L2.60443 10.2364C2.77935 10.8892 3.35901 11.3255 4.00109 11.3476L4.00121 12.3482C2.9743 12.3273 2.03711 11.67 1.69073 10.6658L1.63855 10.4952L0.0858014 4.70026C-0.257241 3.42001 0.458406 2.10549 1.69609 1.68623L1.85348 1.63855L7.64843 0.0858016C8.87534 -0.242948 10.1337 0.400607 10.6055 1.54414L10.6625 1.69609Z" fill="white"/>
</g>
<defs>
<clipPath id="clip0_125_559">
<rect width="16" height="16" fill="white"/>
</clipPath>
</defs>
</svg>
