<svg width="16" height="16" viewBox="0 0 16 16" fill="none" xmlns="http://www.w3.org/2000/svg">
<path d="M13.4998 5.00003C14.8253 5.00003 15.9099 6.03157 15.9945 7.33566L15.9998 7.50003V13.4997C15.9998 14.8252 14.9683 15.9097 13.6642 15.9944L13.4998 15.9997H7.50015C6.17467 15.9997 5.09012 14.9682 5.00547 13.6641L5.00015 13.4997V7.50003C5.00015 6.17455 6.03169 5.08999 7.33578 5.00535L7.50015 5.00003H13.4998ZM13.4998 6.00003H7.50015C6.72046 6.00003 6.07971 6.59492 6.00702 7.35557L6.00015 7.50003V13.4997C6.00015 14.2794 6.59504 14.9202 7.35569 14.9928L7.50015 14.9997H13.4998C14.2795 14.9997 14.9203 14.4048 14.993 13.6442L14.9998 13.4997V7.50003C14.9998 6.72034 14.4049 6.07958 13.6443 6.0069L13.4998 6.00003ZM10.5 7.00003C10.7455 7.00003 10.9496 7.17691 10.9919 7.41016L11 7.50003L10.999 9.9999L13.5002 10C13.7763 10 14.0002 10.2239 14.0002 10.5C14.0002 10.7455 13.8233 10.9496 13.59 10.992L13.5002 11L10.999 10.9999L11 13.5C11 13.7762 10.7761 14 10.5 14C10.2545 14 10.0504 13.8232 10.008 13.5899L9.99999 13.5L9.99902 10.9999L7.50015 11C7.22401 11 7.00015 10.7762 7.00015 10.5C7.00015 10.2546 7.17703 10.0504 7.41028 10.0081L7.50015 10L9.99902 9.9999L9.99999 7.50003C9.99999 7.22389 10.2238 7.00003 10.5 7.00003ZM10.662 1.69508L10.7097 1.85247L11.285 3.9999H10.249L9.74377 2.11129C9.54197 1.35816 8.80152 0.893214 8.04797 1.01988L7.90666 1.05063L2.11142 2.60346C1.35829 2.80526 0.893336 3.54572 1.02 4.29927L1.05076 4.44058L2.60359 10.2358C2.77852 10.8887 3.35821 11.325 4.00032 11.3471L4.00043 12.3477C2.97347 12.3268 2.03623 11.6695 1.68984 10.6652L1.63766 10.4946L0.0848293 4.6994C-0.258231 3.41908 0.457453 2.1045 1.6952 1.68522L1.8526 1.63754L7.64784 0.0847073C8.87481 -0.244059 10.1332 0.399528 10.605 1.54312L10.662 1.69508Z" fill="black" fill-opacity="0.8956"/>
</svg>
