<svg width="14" height="14" viewBox="0 0 14 14" fill="none" xmlns="http://www.w3.org/2000/svg">
<g clip-path="url(#clip0_108_561)">
<path d="M11 4.5C11 5.32843 10.3284 6 9.5 6C8.67157 6 8 5.32843 8 4.5C8 3.67157 8.67157 3 9.5 3C10.3284 3 11 3.67157 11 4.5ZM10 4.5C10 4.22386 9.77614 4 9.5 4C9.22386 4 9 4.22386 9 4.5C9 4.77614 9.22386 5 9.5 5C9.77614 5 10 4.77614 10 4.5ZM0 3C0 1.34315 1.34315 0 3 0H11C12.6569 0 14 1.34315 14 3V11C14 12.6569 12.6569 14 11 14H3C1.34315 14 0 12.6569 0 11V3ZM3 1C1.89543 1 1 1.89543 1 3V11C1 11.3726 1.10191 11.7215 1.27937 12.0201L5.94868 7.43203C6.53227 6.85859 7.46773 6.85859 8.05132 7.43203L12.7206 12.0201C12.8981 11.7215 13 11.3726 13 11V3C13 1.89543 12.1046 1 11 1H3ZM3 13H11C11.3692 13 11.7149 12.9 12.0118 12.7256L7.35044 8.14531C7.15591 7.95417 6.84409 7.95417 6.64956 8.14531L1.98824 12.7256C2.28505 12.9 2.63085 13 3 13Z" fill="white"/>
</g>
<defs>
<clipPath id="clip0_108_561">
<rect width="14" height="14" fill="white"/>
</clipPath>
</defs>
</svg>
