<svg width="12" height="14" viewBox="0 0 12 14" fill="none" xmlns="http://www.w3.org/2000/svg">
<path d="M2.33191 1H3.08191V5.74704C3.08191 6.15896 2.98012 6.5645 2.7856 6.9276L0.179863 11.7916C-0.355453 12.7909 0.368475 13.9999 1.50208 13.9999H10.1617C11.2953 13.9999 12.0193 12.7909 11.4839 11.7916L8.87821 6.9276C8.68369 6.5645 8.58191 6.15896 8.58191 5.74704V1H9.33191C9.60805 1 9.83191 0.776142 9.83191 0.5C9.83191 0.223858 9.60805 0 9.33191 0H2.33191C2.05577 0 1.83191 0.223858 1.83191 0.5C1.83191 0.776142 2.05577 1 2.33191 1ZM4.08191 5.74704V1H7.58191V5.74704C7.58191 6.32373 7.7244 6.89149 7.99673 7.39983L8.58611 8.5H3.0777L3.66708 7.39983C3.93941 6.89149 4.08191 6.32373 4.08191 5.74704ZM2.54198 9.5H9.12183L10.6025 12.2638C10.7809 12.5969 10.5396 12.9999 10.1617 12.9999H1.50208C1.12421 12.9999 0.882903 12.5969 1.06134 12.2638L2.54198 9.5Z" fill="black" fill-opacity="0.8956"/>
</svg>
