<svg width="25" height="24" viewBox="0 0 25 24" fill="none" xmlns="http://www.w3.org/2000/svg">
<path d="M10.4167 0C15.7555 0 20.0833 4.32792 20.0833 9.66667C20.0833 11.9759 19.2736 14.0959 17.9227 15.7584L24.4571 22.2929C24.8476 22.6835 24.8476 23.3165 24.4571 23.7071C24.1021 24.0621 23.5465 24.0944 23.1551 23.8039L23.0429 23.7071L16.5084 17.1727C14.8459 18.5236 12.7259 19.3333 10.4167 19.3333C5.07792 19.3333 0.75 15.0055 0.75 9.66667C0.75 4.32792 5.07792 0 10.4167 0ZM10.4167 2C6.18248 2 2.75 5.43248 2.75 9.66667C2.75 13.9008 6.18248 17.3333 10.4167 17.3333C14.6508 17.3333 18.0833 13.9008 18.0833 9.66667C18.0833 5.43248 14.6508 2 10.4167 2Z" fill="black" fill-opacity="0.8956"/>
</svg>
