<svg width="24" height="24" viewBox="0 0 24 24" fill="none" xmlns="http://www.w3.org/2000/svg">
<path d="M9.5 0.75C14.3325 0.75 18.25 4.66751 18.25 9.5C18.25 11.6462 17.4773 13.6119 16.195 15.1341L23.0303 21.9697C23.3232 22.2626 23.3232 22.7374 23.0303 23.0303C22.7641 23.2966 22.3474 23.3208 22.0538 23.1029L21.9697 23.0303L15.1341 16.195C13.6119 17.4773 11.6462 18.25 9.5 18.25C4.66751 18.25 0.75 14.3325 0.75 9.5C0.75 4.66751 4.66751 0.75 9.5 0.75ZM9.5 2.25C5.49594 2.25 2.25 5.49594 2.25 9.5C2.25 13.5041 5.49594 16.75 9.5 16.75C13.5041 16.75 16.75 13.5041 16.75 9.5C16.75 5.49594 13.5041 2.25 9.5 2.25Z" fill="#212121"/>
</svg>
