<svg width="24" height="24" viewBox="0 0 24 24" fill="none" xmlns="http://www.w3.org/2000/svg">
<g clip-path="url(#clip0_52_643)">
<path d="M19.6667 0C22.0599 0 24 1.94011 24 4.33333V8.33333C24 8.88561 23.5523 9.33333 23 9.33333C22.4477 9.33333 22 8.88561 22 8.33333V4.33333C22 3.04467 20.9553 2 19.6667 2H15.6667C15.1144 2 14.6667 1.55228 14.6667 1C14.6667 0.44772 15.1144 0 15.6667 0H19.6667ZM4.33333 0C1.94009 0 0 1.94009 0 4.33333V8.33333C0 8.88561 0.44772 9.33333 1 9.33333C1.55228 9.33333 2 8.88561 2 8.33333V4.33333C2 3.04467 3.04467 2 4.33333 2H8.33333C8.88561 2 9.33333 1.55228 9.33333 1C9.33333 0.44772 8.88561 0 8.33333 0H4.33333ZM19.6667 24C22.0599 24 24 22.0599 24 19.6667V15.6667C24 15.1144 23.5523 14.6667 23 14.6667C22.4477 14.6667 22 15.1144 22 15.6667V19.6667C22 20.9553 20.9553 22 19.6667 22H15.6667C15.1144 22 14.6667 22.4477 14.6667 23C14.6667 23.5523 15.1144 24 15.6667 24H19.6667ZM0 19.6667C0 22.0599 1.94009 24 4.33333 24H8.33333C8.88561 24 9.33333 23.5523 9.33333 23C9.33333 22.4477 8.88561 22 8.33333 22H4.33333C3.04467 22 2 20.9553 2 19.6667V15.6667C2 15.1144 1.55228 14.6667 1 14.6667C0.44772 14.6667 0 15.1144 0 15.6667V19.6667ZM12 16C14.2092 16 16 14.2092 16 12C16 9.7908 14.2092 8 12 8C9.7908 8 8 9.7908 8 12C8 14.2092 9.7908 16 12 16ZM12 14C10.8955 14 10 13.1045 10 12C10 10.8955 10.8955 10 12 10C13.1045 10 14 10.8955 14 12C14 13.1045 13.1045 14 12 14ZM6 7.33333C6.73639 7.33333 7.33333 6.73639 7.33333 6C7.33333 5.26363 6.73639 4.66667 6 4.66667C5.26363 4.66667 4.66667 5.26363 4.66667 6C4.66667 6.73639 5.26363 7.33333 6 7.33333Z" fill="black" fill-opacity="0.8956"/>
</g>
<defs>
<clipPath id="clip0_52_643">
<rect width="24" height="24" fill="white"/>
</clipPath>
</defs>
</svg>
